<mxfile host="app.diagrams.net" modified="2023-09-15T18:44:55.715Z" agent="Mozilla/5.0 (Windows NT 10.0; Win64; x64) AppleWebKit/537.36 (KHTML, like Gecko) Chrome/114.0.0.0 YaBrowser/23.7.5.704 Yowser/2.5 Safari/537.36" etag="QbEUZ06l82ff54WcAbbq" version="21.7.4" type="device">
  <diagram id="Ulc002I4-CXRg7rzfWcE" name="Страница 1">
    <mxGraphModel dx="2213" dy="1960" grid="0" gridSize="10" guides="1" tooltips="1" connect="1" arrows="1" fold="1" page="1" pageScale="1" pageWidth="827" pageHeight="1169" math="0" shadow="0">
      <root>
        <mxCell id="0" />
        <mxCell id="1" parent="0" />
        <mxCell id="hzGDxLUB0dOeA8XzOo1Z-4" value="User" style="swimlane;fontStyle=0;childLayout=stackLayout;horizontal=1;startSize=26;fillColor=none;horizontalStack=0;resizeParent=1;resizeParentMax=0;resizeLast=0;collapsible=1;marginBottom=0;verticalAlign=middle;rounded=1;" parent="1" vertex="1">
          <mxGeometry x="-208" y="179" width="140" height="136" as="geometry" />
        </mxCell>
        <mxCell id="hzGDxLUB0dOeA8XzOo1Z-5" value="id" style="text;strokeColor=none;fillColor=none;align=left;verticalAlign=top;spacingLeft=4;spacingRight=4;overflow=hidden;rotatable=0;points=[[0,0.5],[1,0.5]];portConstraint=eastwest;" parent="hzGDxLUB0dOeA8XzOo1Z-4" vertex="1">
          <mxGeometry y="26" width="140" height="26" as="geometry" />
        </mxCell>
        <mxCell id="hzGDxLUB0dOeA8XzOo1Z-6" value="phone" style="text;strokeColor=none;fillColor=none;align=left;verticalAlign=top;spacingLeft=4;spacingRight=4;overflow=hidden;rotatable=0;points=[[0,0.5],[1,0.5]];portConstraint=eastwest;" parent="hzGDxLUB0dOeA8XzOo1Z-4" vertex="1">
          <mxGeometry y="52" width="140" height="28" as="geometry" />
        </mxCell>
        <mxCell id="hzGDxLUB0dOeA8XzOo1Z-7" value="name" style="text;strokeColor=none;fillColor=none;align=left;verticalAlign=top;spacingLeft=4;spacingRight=4;overflow=hidden;rotatable=0;points=[[0,0.5],[1,0.5]];portConstraint=eastwest;" parent="hzGDxLUB0dOeA8XzOo1Z-4" vertex="1">
          <mxGeometry y="80" width="140" height="28" as="geometry" />
        </mxCell>
        <mxCell id="hzGDxLUB0dOeA8XzOo1Z-8" value="surname" style="text;strokeColor=none;fillColor=none;align=left;verticalAlign=top;spacingLeft=4;spacingRight=4;overflow=hidden;rotatable=0;points=[[0,0.5],[1,0.5]];portConstraint=eastwest;" parent="hzGDxLUB0dOeA8XzOo1Z-4" vertex="1">
          <mxGeometry y="108" width="140" height="28" as="geometry" />
        </mxCell>
        <mxCell id="hzGDxLUB0dOeA8XzOo1Z-9" value="performance" style="swimlane;fontStyle=0;childLayout=stackLayout;horizontal=1;startSize=26;fillColor=none;horizontalStack=0;resizeParent=1;resizeParentMax=0;resizeLast=0;collapsible=1;marginBottom=0;verticalAlign=middle;rounded=1;" parent="1" vertex="1">
          <mxGeometry x="79" y="-26" width="140" height="192" as="geometry" />
        </mxCell>
        <mxCell id="hzGDxLUB0dOeA8XzOo1Z-13" value="id" style="text;strokeColor=none;fillColor=none;align=left;verticalAlign=top;spacingLeft=4;spacingRight=4;overflow=hidden;rotatable=0;points=[[0,0.5],[1,0.5]];portConstraint=eastwest;" parent="hzGDxLUB0dOeA8XzOo1Z-9" vertex="1">
          <mxGeometry y="26" width="140" height="28" as="geometry" />
        </mxCell>
        <mxCell id="hzGDxLUB0dOeA8XzOo1Z-10" value="name&#xa;" style="text;strokeColor=none;fillColor=none;align=left;verticalAlign=top;spacingLeft=4;spacingRight=4;overflow=hidden;rotatable=0;points=[[0,0.5],[1,0.5]];portConstraint=eastwest;" parent="hzGDxLUB0dOeA8XzOo1Z-9" vertex="1">
          <mxGeometry y="54" width="140" height="26" as="geometry" />
        </mxCell>
        <mxCell id="hzGDxLUB0dOeA8XzOo1Z-12" value="date&#xa;" style="text;strokeColor=none;fillColor=none;align=left;verticalAlign=top;spacingLeft=4;spacingRight=4;overflow=hidden;rotatable=0;points=[[0,0.5],[1,0.5]];portConstraint=eastwest;" parent="hzGDxLUB0dOeA8XzOo1Z-9" vertex="1">
          <mxGeometry y="80" width="140" height="28" as="geometry" />
        </mxCell>
        <mxCell id="yZLNAECXlm0yZEk-7AN--3" value="personalid" style="text;strokeColor=none;fillColor=none;align=left;verticalAlign=top;spacingLeft=4;spacingRight=4;overflow=hidden;rotatable=0;points=[[0,0.5],[1,0.5]];portConstraint=eastwest;" parent="hzGDxLUB0dOeA8XzOo1Z-9" vertex="1">
          <mxGeometry y="108" width="140" height="28" as="geometry" />
        </mxCell>
        <mxCell id="TinDo3VdIXW9If2X8s-M-27" value="theatreid" style="text;strokeColor=none;fillColor=none;align=left;verticalAlign=top;spacingLeft=4;spacingRight=4;overflow=hidden;rotatable=0;points=[[0,0.5],[1,0.5]];portConstraint=eastwest;" vertex="1" parent="hzGDxLUB0dOeA8XzOo1Z-9">
          <mxGeometry y="136" width="140" height="28" as="geometry" />
        </mxCell>
        <mxCell id="TinDo3VdIXW9If2X8s-M-35" value="genreid" style="text;strokeColor=none;fillColor=none;align=left;verticalAlign=top;spacingLeft=4;spacingRight=4;overflow=hidden;rotatable=0;points=[[0,0.5],[1,0.5]];portConstraint=eastwest;" vertex="1" parent="hzGDxLUB0dOeA8XzOo1Z-9">
          <mxGeometry y="164" width="140" height="28" as="geometry" />
        </mxCell>
        <mxCell id="86McGOD05Jpw5Y9MJjcj-2" value="personal" style="swimlane;fontStyle=0;childLayout=stackLayout;horizontal=1;startSize=26;fillColor=none;horizontalStack=0;resizeParent=1;resizeParentMax=0;resizeLast=0;collapsible=1;marginBottom=0;verticalAlign=middle;rounded=1;" parent="1" vertex="1">
          <mxGeometry x="359" y="-2" width="140" height="164" as="geometry" />
        </mxCell>
        <mxCell id="86McGOD05Jpw5Y9MJjcj-3" value="id" style="text;strokeColor=none;fillColor=none;align=left;verticalAlign=top;spacingLeft=4;spacingRight=4;overflow=hidden;rotatable=0;points=[[0,0.5],[1,0.5]];portConstraint=eastwest;" parent="86McGOD05Jpw5Y9MJjcj-2" vertex="1">
          <mxGeometry y="26" width="140" height="26" as="geometry" />
        </mxCell>
        <mxCell id="86McGOD05Jpw5Y9MJjcj-4" value="name" style="text;strokeColor=none;fillColor=none;align=left;verticalAlign=top;spacingLeft=4;spacingRight=4;overflow=hidden;rotatable=0;points=[[0,0.5],[1,0.5]];portConstraint=eastwest;" parent="86McGOD05Jpw5Y9MJjcj-2" vertex="1">
          <mxGeometry y="52" width="140" height="28" as="geometry" />
        </mxCell>
        <mxCell id="86McGOD05Jpw5Y9MJjcj-5" value="surname" style="text;strokeColor=none;fillColor=none;align=left;verticalAlign=top;spacingLeft=4;spacingRight=4;overflow=hidden;rotatable=0;points=[[0,0.5],[1,0.5]];portConstraint=eastwest;" parent="86McGOD05Jpw5Y9MJjcj-2" vertex="1">
          <mxGeometry y="80" width="140" height="28" as="geometry" />
        </mxCell>
        <mxCell id="TinDo3VdIXW9If2X8s-M-25" value="phone" style="text;strokeColor=none;fillColor=none;align=left;verticalAlign=top;spacingLeft=4;spacingRight=4;overflow=hidden;rotatable=0;points=[[0,0.5],[1,0.5]];portConstraint=eastwest;" vertex="1" parent="86McGOD05Jpw5Y9MJjcj-2">
          <mxGeometry y="108" width="140" height="28" as="geometry" />
        </mxCell>
        <mxCell id="TinDo3VdIXW9If2X8s-M-29" value="jobid" style="text;strokeColor=none;fillColor=none;align=left;verticalAlign=top;spacingLeft=4;spacingRight=4;overflow=hidden;rotatable=0;points=[[0,0.5],[1,0.5]];portConstraint=eastwest;" vertex="1" parent="86McGOD05Jpw5Y9MJjcj-2">
          <mxGeometry y="136" width="140" height="28" as="geometry" />
        </mxCell>
        <mxCell id="86McGOD05Jpw5Y9MJjcj-9" value="jobs" style="swimlane;fontStyle=0;childLayout=stackLayout;horizontal=1;startSize=26;fillColor=none;horizontalStack=0;resizeParent=1;resizeParentMax=0;resizeLast=0;collapsible=1;marginBottom=0;verticalAlign=middle;rounded=1;" parent="1" vertex="1">
          <mxGeometry x="609" y="13" width="140" height="80" as="geometry" />
        </mxCell>
        <mxCell id="86McGOD05Jpw5Y9MJjcj-10" value="id" style="text;strokeColor=none;fillColor=none;align=left;verticalAlign=top;spacingLeft=4;spacingRight=4;overflow=hidden;rotatable=0;points=[[0,0.5],[1,0.5]];portConstraint=eastwest;" parent="86McGOD05Jpw5Y9MJjcj-9" vertex="1">
          <mxGeometry y="26" width="140" height="26" as="geometry" />
        </mxCell>
        <mxCell id="86McGOD05Jpw5Y9MJjcj-11" value="name" style="text;strokeColor=none;fillColor=none;align=left;verticalAlign=top;spacingLeft=4;spacingRight=4;overflow=hidden;rotatable=0;points=[[0,0.5],[1,0.5]];portConstraint=eastwest;" parent="86McGOD05Jpw5Y9MJjcj-9" vertex="1">
          <mxGeometry y="52" width="140" height="28" as="geometry" />
        </mxCell>
        <mxCell id="TinDo3VdIXW9If2X8s-M-2" value="tickets" style="swimlane;fontStyle=0;childLayout=stackLayout;horizontal=1;startSize=26;fillColor=none;horizontalStack=0;resizeParent=1;resizeParentMax=0;resizeLast=0;collapsible=1;marginBottom=0;verticalAlign=middle;rounded=1;" vertex="1" parent="1">
          <mxGeometry x="25" y="184" width="140" height="108" as="geometry" />
        </mxCell>
        <mxCell id="TinDo3VdIXW9If2X8s-M-3" value="id" style="text;strokeColor=none;fillColor=none;align=left;verticalAlign=top;spacingLeft=4;spacingRight=4;overflow=hidden;rotatable=0;points=[[0,0.5],[1,0.5]];portConstraint=eastwest;" vertex="1" parent="TinDo3VdIXW9If2X8s-M-2">
          <mxGeometry y="26" width="140" height="26" as="geometry" />
        </mxCell>
        <mxCell id="TinDo3VdIXW9If2X8s-M-4" value="userid" style="text;strokeColor=none;fillColor=none;align=left;verticalAlign=top;spacingLeft=4;spacingRight=4;overflow=hidden;rotatable=0;points=[[0,0.5],[1,0.5]];portConstraint=eastwest;" vertex="1" parent="TinDo3VdIXW9If2X8s-M-2">
          <mxGeometry y="52" width="140" height="28" as="geometry" />
        </mxCell>
        <mxCell id="TinDo3VdIXW9If2X8s-M-8" value="performanceid" style="text;strokeColor=none;fillColor=none;align=left;verticalAlign=top;spacingLeft=4;spacingRight=4;overflow=hidden;rotatable=0;points=[[0,0.5],[1,0.5]];portConstraint=eastwest;" vertex="1" parent="TinDo3VdIXW9If2X8s-M-2">
          <mxGeometry y="80" width="140" height="28" as="geometry" />
        </mxCell>
        <mxCell id="TinDo3VdIXW9If2X8s-M-9" style="edgeStyle=orthogonalEdgeStyle;rounded=0;orthogonalLoop=1;jettySize=auto;html=1;exitX=1;exitY=0.5;exitDx=0;exitDy=0;entryX=0;entryY=0.5;entryDx=0;entryDy=0;" edge="1" parent="1" source="hzGDxLUB0dOeA8XzOo1Z-5" target="TinDo3VdIXW9If2X8s-M-4">
          <mxGeometry relative="1" as="geometry" />
        </mxCell>
        <mxCell id="TinDo3VdIXW9If2X8s-M-10" value="theatre" style="swimlane;fontStyle=0;childLayout=stackLayout;horizontal=1;startSize=26;fillColor=none;horizontalStack=0;resizeParent=1;resizeParentMax=0;resizeLast=0;collapsible=1;marginBottom=0;verticalAlign=middle;rounded=1;" vertex="1" parent="1">
          <mxGeometry x="-542" y="-13" width="140" height="136" as="geometry" />
        </mxCell>
        <mxCell id="TinDo3VdIXW9If2X8s-M-11" value="id" style="text;strokeColor=none;fillColor=none;align=left;verticalAlign=top;spacingLeft=4;spacingRight=4;overflow=hidden;rotatable=0;points=[[0,0.5],[1,0.5]];portConstraint=eastwest;" vertex="1" parent="TinDo3VdIXW9If2X8s-M-10">
          <mxGeometry y="26" width="140" height="28" as="geometry" />
        </mxCell>
        <mxCell id="TinDo3VdIXW9If2X8s-M-12" value="locationid" style="text;strokeColor=none;fillColor=none;align=left;verticalAlign=top;spacingLeft=4;spacingRight=4;overflow=hidden;rotatable=0;points=[[0,0.5],[1,0.5]];portConstraint=eastwest;" vertex="1" parent="TinDo3VdIXW9If2X8s-M-10">
          <mxGeometry y="54" width="140" height="26" as="geometry" />
        </mxCell>
        <mxCell id="TinDo3VdIXW9If2X8s-M-13" value="name" style="text;strokeColor=none;fillColor=none;align=left;verticalAlign=top;spacingLeft=4;spacingRight=4;overflow=hidden;rotatable=0;points=[[0,0.5],[1,0.5]];portConstraint=eastwest;" vertex="1" parent="TinDo3VdIXW9If2X8s-M-10">
          <mxGeometry y="80" width="140" height="28" as="geometry" />
        </mxCell>
        <mxCell id="TinDo3VdIXW9If2X8s-M-40" value="typeid" style="text;strokeColor=none;fillColor=none;align=left;verticalAlign=top;spacingLeft=4;spacingRight=4;overflow=hidden;rotatable=0;points=[[0,0.5],[1,0.5]];portConstraint=eastwest;" vertex="1" parent="TinDo3VdIXW9If2X8s-M-10">
          <mxGeometry y="108" width="140" height="28" as="geometry" />
        </mxCell>
        <mxCell id="TinDo3VdIXW9If2X8s-M-15" value="location" style="swimlane;fontStyle=0;childLayout=stackLayout;horizontal=1;startSize=26;fillColor=none;horizontalStack=0;resizeParent=1;resizeParentMax=0;resizeLast=0;collapsible=1;marginBottom=0;verticalAlign=middle;rounded=1;" vertex="1" parent="1">
          <mxGeometry x="-313" y="-28" width="140" height="108" as="geometry" />
        </mxCell>
        <mxCell id="TinDo3VdIXW9If2X8s-M-16" value="id" style="text;strokeColor=none;fillColor=none;align=left;verticalAlign=top;spacingLeft=4;spacingRight=4;overflow=hidden;rotatable=0;points=[[0,0.5],[1,0.5]];portConstraint=eastwest;" vertex="1" parent="TinDo3VdIXW9If2X8s-M-15">
          <mxGeometry y="26" width="140" height="28" as="geometry" />
        </mxCell>
        <mxCell id="TinDo3VdIXW9If2X8s-M-17" value="address" style="text;strokeColor=none;fillColor=none;align=left;verticalAlign=top;spacingLeft=4;spacingRight=4;overflow=hidden;rotatable=0;points=[[0,0.5],[1,0.5]];portConstraint=eastwest;" vertex="1" parent="TinDo3VdIXW9If2X8s-M-15">
          <mxGeometry y="54" width="140" height="26" as="geometry" />
        </mxCell>
        <mxCell id="TinDo3VdIXW9If2X8s-M-18" value="countryid" style="text;strokeColor=none;fillColor=none;align=left;verticalAlign=top;spacingLeft=4;spacingRight=4;overflow=hidden;rotatable=0;points=[[0,0.5],[1,0.5]];portConstraint=eastwest;" vertex="1" parent="TinDo3VdIXW9If2X8s-M-15">
          <mxGeometry y="80" width="140" height="28" as="geometry" />
        </mxCell>
        <mxCell id="TinDo3VdIXW9If2X8s-M-19" value="country" style="swimlane;fontStyle=0;childLayout=stackLayout;horizontal=1;startSize=26;fillColor=none;horizontalStack=0;resizeParent=1;resizeParentMax=0;resizeLast=0;collapsible=1;marginBottom=0;verticalAlign=middle;rounded=1;" vertex="1" parent="1">
          <mxGeometry x="-121" y="-10" width="140" height="82" as="geometry" />
        </mxCell>
        <mxCell id="TinDo3VdIXW9If2X8s-M-20" value="id" style="text;strokeColor=none;fillColor=none;align=left;verticalAlign=top;spacingLeft=4;spacingRight=4;overflow=hidden;rotatable=0;points=[[0,0.5],[1,0.5]];portConstraint=eastwest;" vertex="1" parent="TinDo3VdIXW9If2X8s-M-19">
          <mxGeometry y="26" width="140" height="28" as="geometry" />
        </mxCell>
        <mxCell id="TinDo3VdIXW9If2X8s-M-22" value="name" style="text;strokeColor=none;fillColor=none;align=left;verticalAlign=top;spacingLeft=4;spacingRight=4;overflow=hidden;rotatable=0;points=[[0,0.5],[1,0.5]];portConstraint=eastwest;" vertex="1" parent="TinDo3VdIXW9If2X8s-M-19">
          <mxGeometry y="54" width="140" height="28" as="geometry" />
        </mxCell>
        <mxCell id="TinDo3VdIXW9If2X8s-M-23" style="edgeStyle=orthogonalEdgeStyle;rounded=0;orthogonalLoop=1;jettySize=auto;html=1;exitX=1;exitY=0.5;exitDx=0;exitDy=0;entryX=0;entryY=0.5;entryDx=0;entryDy=0;" edge="1" parent="1" source="TinDo3VdIXW9If2X8s-M-12" target="TinDo3VdIXW9If2X8s-M-16">
          <mxGeometry relative="1" as="geometry">
            <mxPoint x="-349" y="69" as="targetPoint" />
          </mxGeometry>
        </mxCell>
        <mxCell id="TinDo3VdIXW9If2X8s-M-24" style="edgeStyle=orthogonalEdgeStyle;rounded=0;orthogonalLoop=1;jettySize=auto;html=1;exitX=1;exitY=0.5;exitDx=0;exitDy=0;entryX=0;entryY=0.5;entryDx=0;entryDy=0;" edge="1" parent="1" source="TinDo3VdIXW9If2X8s-M-18" target="TinDo3VdIXW9If2X8s-M-20">
          <mxGeometry relative="1" as="geometry" />
        </mxCell>
        <mxCell id="TinDo3VdIXW9If2X8s-M-26" style="edgeStyle=orthogonalEdgeStyle;rounded=0;orthogonalLoop=1;jettySize=auto;html=1;exitX=1;exitY=0.5;exitDx=0;exitDy=0;entryX=0;entryY=0.5;entryDx=0;entryDy=0;" edge="1" parent="1" source="TinDo3VdIXW9If2X8s-M-29" target="86McGOD05Jpw5Y9MJjcj-10">
          <mxGeometry relative="1" as="geometry" />
        </mxCell>
        <mxCell id="TinDo3VdIXW9If2X8s-M-28" style="edgeStyle=orthogonalEdgeStyle;rounded=0;orthogonalLoop=1;jettySize=auto;html=1;exitX=0;exitY=0.5;exitDx=0;exitDy=0;entryX=1;entryY=0.5;entryDx=0;entryDy=0;" edge="1" parent="1" source="TinDo3VdIXW9If2X8s-M-27" target="TinDo3VdIXW9If2X8s-M-11">
          <mxGeometry relative="1" as="geometry">
            <Array as="points">
              <mxPoint x="-172" y="122" />
              <mxPoint x="-172" y="96" />
              <mxPoint x="-385" y="96" />
            </Array>
          </mxGeometry>
        </mxCell>
        <mxCell id="TinDo3VdIXW9If2X8s-M-30" style="edgeStyle=orthogonalEdgeStyle;rounded=0;orthogonalLoop=1;jettySize=auto;html=1;exitX=1;exitY=0.5;exitDx=0;exitDy=0;entryX=0;entryY=0.5;entryDx=0;entryDy=0;" edge="1" parent="1" source="yZLNAECXlm0yZEk-7AN--3" target="86McGOD05Jpw5Y9MJjcj-3">
          <mxGeometry relative="1" as="geometry" />
        </mxCell>
        <mxCell id="TinDo3VdIXW9If2X8s-M-31" style="edgeStyle=orthogonalEdgeStyle;rounded=0;orthogonalLoop=1;jettySize=auto;html=1;exitX=0;exitY=0.5;exitDx=0;exitDy=0;entryX=0;entryY=0.5;entryDx=0;entryDy=0;" edge="1" parent="1" source="TinDo3VdIXW9If2X8s-M-8" target="hzGDxLUB0dOeA8XzOo1Z-13">
          <mxGeometry relative="1" as="geometry">
            <Array as="points">
              <mxPoint x="5" y="278" />
              <mxPoint x="5" y="86" />
              <mxPoint x="61" y="86" />
            </Array>
          </mxGeometry>
        </mxCell>
        <mxCell id="TinDo3VdIXW9If2X8s-M-32" value="genre" style="swimlane;fontStyle=0;childLayout=stackLayout;horizontal=1;startSize=26;fillColor=none;horizontalStack=0;resizeParent=1;resizeParentMax=0;resizeLast=0;collapsible=1;marginBottom=0;verticalAlign=middle;rounded=1;" vertex="1" parent="1">
          <mxGeometry x="323" y="-120" width="140" height="80" as="geometry" />
        </mxCell>
        <mxCell id="TinDo3VdIXW9If2X8s-M-33" value="id" style="text;strokeColor=none;fillColor=none;align=left;verticalAlign=top;spacingLeft=4;spacingRight=4;overflow=hidden;rotatable=0;points=[[0,0.5],[1,0.5]];portConstraint=eastwest;" vertex="1" parent="TinDo3VdIXW9If2X8s-M-32">
          <mxGeometry y="26" width="140" height="26" as="geometry" />
        </mxCell>
        <mxCell id="TinDo3VdIXW9If2X8s-M-34" value="name" style="text;strokeColor=none;fillColor=none;align=left;verticalAlign=top;spacingLeft=4;spacingRight=4;overflow=hidden;rotatable=0;points=[[0,0.5],[1,0.5]];portConstraint=eastwest;" vertex="1" parent="TinDo3VdIXW9If2X8s-M-32">
          <mxGeometry y="52" width="140" height="28" as="geometry" />
        </mxCell>
        <mxCell id="TinDo3VdIXW9If2X8s-M-36" style="edgeStyle=orthogonalEdgeStyle;rounded=0;orthogonalLoop=1;jettySize=auto;html=1;exitX=1;exitY=0.5;exitDx=0;exitDy=0;entryX=0;entryY=0.5;entryDx=0;entryDy=0;" edge="1" parent="1" source="TinDo3VdIXW9If2X8s-M-35" target="TinDo3VdIXW9If2X8s-M-33">
          <mxGeometry relative="1" as="geometry" />
        </mxCell>
        <mxCell id="TinDo3VdIXW9If2X8s-M-37" value="theatre_type" style="swimlane;fontStyle=0;childLayout=stackLayout;horizontal=1;startSize=26;fillColor=none;horizontalStack=0;resizeParent=1;resizeParentMax=0;resizeLast=0;collapsible=1;marginBottom=0;verticalAlign=middle;rounded=1;" vertex="1" parent="1">
          <mxGeometry x="-748" y="6" width="140" height="80" as="geometry" />
        </mxCell>
        <mxCell id="TinDo3VdIXW9If2X8s-M-38" value="id" style="text;strokeColor=none;fillColor=none;align=left;verticalAlign=top;spacingLeft=4;spacingRight=4;overflow=hidden;rotatable=0;points=[[0,0.5],[1,0.5]];portConstraint=eastwest;" vertex="1" parent="TinDo3VdIXW9If2X8s-M-37">
          <mxGeometry y="26" width="140" height="26" as="geometry" />
        </mxCell>
        <mxCell id="TinDo3VdIXW9If2X8s-M-39" value="name" style="text;strokeColor=none;fillColor=none;align=left;verticalAlign=top;spacingLeft=4;spacingRight=4;overflow=hidden;rotatable=0;points=[[0,0.5],[1,0.5]];portConstraint=eastwest;" vertex="1" parent="TinDo3VdIXW9If2X8s-M-37">
          <mxGeometry y="52" width="140" height="28" as="geometry" />
        </mxCell>
        <mxCell id="TinDo3VdIXW9If2X8s-M-41" style="edgeStyle=orthogonalEdgeStyle;rounded=0;orthogonalLoop=1;jettySize=auto;html=1;exitX=0;exitY=0.5;exitDx=0;exitDy=0;entryX=1;entryY=0.5;entryDx=0;entryDy=0;" edge="1" parent="1" source="TinDo3VdIXW9If2X8s-M-40" target="TinDo3VdIXW9If2X8s-M-38">
          <mxGeometry relative="1" as="geometry" />
        </mxCell>
      </root>
    </mxGraphModel>
  </diagram>
</mxfile>
